<svg xmlns="http://www.w3.org/2000/svg" width="88" height="32" viewBox="0 0 88 32">
  <g id="logo" transform="translate(-49 -39.476)">
    <rect id="사각형_242" data-name="사각형 242" width="88" height="32" transform="translate(49 39.477)" fill="none" opacity="0.523"/>
    <g id="그룹_838" data-name="그룹 838" transform="translate(-116.914 -562.451)">
      <g id="그룹_837" data-name="그룹 837" transform="translate(165.914 601.927)">
        <path id="패스_349" data-name="패스 349" d="M197.914,618.834V617.02H182.821V601.927h-1.814V617.02H165.914v1.814h15.093v15.093h1.814V618.834Z" transform="translate(-165.914 -601.927)" fill="#1a1311"/>
        <path id="패스_350" data-name="패스 350" d="M346.447,637.56l1.283-1.282-13.621-13.621,13.621-13.621-1.283-1.282-13.621,13.621-13.621-13.621-1.283,1.282,13.621,13.621-13.621,13.621,1.283,1.282,13.621-13.621Z" transform="translate(-290.71 -606.71)" fill="#1a1311"/>
      </g>
      <path id="패스_351" data-name="패스 351" d="M498.051,635.133a15.664,15.664,0,1,1,15.664-15.664A15.681,15.681,0,0,1,498.051,635.133Zm0-29.491a13.827,13.827,0,1,0,13.827,13.827A13.843,13.843,0,0,0,498.051,605.642Z" transform="translate(-259.819 -1.542)" fill="#1a1311"/>
    </g>
  </g>
</svg>
